<svg width="707" height="480" viewBox="0 0 707 480" fill="none" xmlns="http://www.w3.org/2000/svg">
<g id="404" clip-path="url(#clip0)">
<g id="background">
<g id="Group">
<path id="Vector" d="M694.13 -0.48999H15.13C6.78 -0.48999 0 6.28001 0 14.64V293.39C0 301.89 6.89001 308.78 15.39 308.78H101.1V464.38C101.1 470.57 109.17 472.94 112.52 467.73L214.7 308.77H692.07C700.31 308.77 707 302.09 707 293.84V12.37C707 5.27 701.24 -0.48999 694.13 -0.48999Z" fill="url(#paint0_linear)"/>
</g>
</g>
<g id="404-text">
<g id="Group_2">
<path id="#404" d="M65.9839 209.204H87.7829L83.897 238.491H112.425L116.311 209.204H131.57L127.685 238.491H156.213L160.194 209.204H182.087L185.784 180.771H163.89L166.828 158.119H188.817L192.418 129.685H170.619L176.401 85.9923H147.778L141.996 129.685H126.832L132.613 85.9923H103.99L98.2085 129.685H76.3148L72.6184 158.119H94.4174L91.4793 180.771H69.5855L65.9839 209.204ZM138.3 158.119L135.267 180.771H120.197L123.135 158.119H138.3ZM200.095 205.697H286.912V235.173H324.16V205.697H339.514V168.449H324.16V111.298H284.637L286.912 168.449H259.426L293.357 82.0117L250.043 81.7273L200.095 205.697ZM347.57 158.782C347.57 180.107 354.489 199.916 363.967 212.616C375.909 227.97 392.874 236.026 413.725 236.026C434.482 236.026 451.447 227.97 463.389 212.616C474.383 197.925 479.881 179.823 479.881 158.782C479.881 137.741 474.383 119.733 463.389 105.043C451.542 89.5939 434.482 81.5378 413.725 81.5378C392.874 81.5378 375.909 89.5939 363.967 105.043C354.489 117.648 347.57 137.457 347.57 158.782ZM441.211 158.687C441.211 172.051 437.704 182.571 431.07 190.438C426.426 195.84 420.834 198.305 413.536 198.305C406.427 198.305 400.836 195.84 396.191 190.438C389.462 182.477 385.955 171.956 385.955 158.687C385.955 145.703 389.367 135.277 396.191 127.031C400.836 121.629 406.427 119.07 413.536 119.07C420.739 119.07 426.331 121.534 431.07 127.031C437.704 135.087 441.211 145.513 441.211 158.687ZM489.358 205.697H576.175V235.173H613.423V205.697H628.777V168.449H613.423V111.298H573.901L576.175 168.449H548.69L582.62 82.0117L539.307 81.7273L489.358 205.697Z" fill="white"/>
</g>
</g>
<g id="try">
<path id="Please, try again later..." d="M223.321 343.678V355.467H218.416V325.092H228.742C232.241 325.092 234.866 325.924 236.615 327.588C238.394 329.251 239.283 331.531 239.283 334.428C239.283 337.297 238.379 339.562 236.572 341.226C234.765 342.861 232.155 343.678 228.742 343.678H223.321ZM228.226 339.677C232.27 339.677 234.292 337.928 234.292 334.428C234.292 332.707 233.804 331.402 232.829 330.513C231.883 329.595 230.348 329.136 228.226 329.136H223.321V339.677H228.226ZM248.488 323.629V355.467H243.583V323.629H248.488ZM276.451 342.474C276.451 343.277 276.394 343.98 276.279 344.582H258.037C258.123 347.02 258.797 348.827 260.059 350.003C261.321 351.179 262.885 351.767 264.749 351.767C266.384 351.767 267.761 351.351 268.879 350.519C270.026 349.687 270.729 348.583 270.987 347.206H276.236C275.921 348.87 275.261 350.347 274.257 351.638C273.253 352.928 271.948 353.947 270.342 354.692C268.736 355.409 266.943 355.768 264.964 355.768C262.669 355.768 260.633 355.28 258.855 354.305C257.105 353.33 255.728 351.925 254.724 350.089C253.721 348.253 253.219 346.088 253.219 343.592C253.219 341.126 253.721 338.974 254.724 337.139C255.728 335.303 257.105 333.898 258.855 332.923C260.633 331.947 262.669 331.46 264.964 331.46C267.287 331.46 269.309 331.947 271.03 332.923C272.78 333.869 274.114 335.188 275.031 336.881C275.978 338.544 276.451 340.409 276.451 342.474ZM271.504 342.345C271.561 340.796 271.288 339.505 270.686 338.473C270.112 337.411 269.309 336.637 268.277 336.149C267.273 335.633 266.169 335.375 264.964 335.375C263.042 335.375 261.436 335.963 260.145 337.139C258.855 338.315 258.152 340.05 258.037 342.345H271.504ZM290.695 331.46C292.846 331.46 294.682 331.99 296.202 333.052C297.722 334.113 298.798 335.518 299.429 337.268V331.761H304.333V355.467H299.429V349.96C298.798 351.709 297.722 353.115 296.202 354.176C294.682 355.237 292.846 355.768 290.695 355.768C288.63 355.768 286.78 355.28 285.145 354.305C283.539 353.33 282.277 351.925 281.359 350.089C280.441 348.253 279.982 346.088 279.982 343.592C279.982 341.126 280.441 338.974 281.359 337.139C282.277 335.303 283.539 333.898 285.145 332.923C286.78 331.947 288.63 331.46 290.695 331.46ZM292.201 335.762C290.021 335.762 288.271 336.465 286.952 337.87C285.661 339.247 285.016 341.154 285.016 343.592C285.016 346.03 285.661 347.952 286.952 349.357C288.271 350.734 290.021 351.423 292.201 351.423C293.578 351.423 294.811 351.107 295.901 350.476C296.991 349.816 297.851 348.899 298.482 347.723C299.113 346.547 299.429 345.17 299.429 343.592C299.429 342.043 299.113 340.681 298.482 339.505C297.851 338.3 296.991 337.383 295.901 336.752C294.811 336.092 293.578 335.762 292.201 335.762ZM318.006 331.46C320.789 331.46 323.012 332.177 324.675 333.611C326.367 335.016 327.4 336.909 327.773 339.29H323.126C322.925 337.999 322.366 336.967 321.448 336.192C320.559 335.389 319.369 334.988 317.877 334.988C316.644 334.988 315.683 335.289 314.995 335.891C314.335 336.465 314.005 337.254 314.005 338.257C314.005 339.003 314.249 339.606 314.737 340.064C315.224 340.523 315.827 340.882 316.544 341.14C317.289 341.398 318.336 341.685 319.684 342C321.463 342.402 322.897 342.818 323.987 343.248C325.105 343.678 326.052 344.367 326.826 345.313C327.629 346.231 328.031 347.493 328.031 349.099C328.031 351.078 327.271 352.685 325.751 353.918C324.259 355.151 322.237 355.768 319.684 355.768C316.73 355.768 314.335 355.08 312.499 353.703C310.692 352.326 309.603 350.404 309.23 347.938H314.005C314.149 349.228 314.722 350.275 315.726 351.078C316.73 351.882 318.049 352.283 319.684 352.283C320.86 352.283 321.778 351.982 322.438 351.38C323.126 350.749 323.47 349.96 323.47 349.013C323.47 348.182 323.212 347.522 322.696 347.034C322.18 346.547 321.534 346.174 320.76 345.916C319.986 345.629 318.924 345.342 317.576 345.055C315.855 344.654 314.45 344.252 313.36 343.85C312.299 343.449 311.381 342.804 310.606 341.914C309.861 340.997 309.488 339.763 309.488 338.214C309.488 336.207 310.234 334.586 311.725 333.353C313.245 332.091 315.339 331.46 318.006 331.46ZM354.977 342.474C354.977 343.277 354.92 343.98 354.805 344.582H336.563C336.649 347.02 337.323 348.827 338.585 350.003C339.847 351.179 341.411 351.767 343.275 351.767C344.91 351.767 346.287 351.351 347.405 350.519C348.553 349.687 349.255 348.583 349.513 347.206H354.762C354.447 348.87 353.787 350.347 352.783 351.638C351.779 352.928 350.474 353.947 348.868 354.692C347.262 355.409 345.469 355.768 343.49 355.768C341.196 355.768 339.159 355.28 337.381 354.305C335.631 353.33 334.254 351.925 333.251 350.089C332.247 348.253 331.745 346.088 331.745 343.592C331.745 341.126 332.247 338.974 333.251 337.139C334.254 335.303 335.631 333.898 337.381 332.923C339.159 331.947 341.196 331.46 343.49 331.46C345.813 331.46 347.835 331.947 349.556 332.923C351.306 333.869 352.64 335.188 353.558 336.881C354.504 338.544 354.977 340.409 354.977 342.474ZM350.03 342.345C350.087 340.796 349.815 339.505 349.212 338.473C348.639 337.411 347.835 336.637 346.803 336.149C345.799 335.633 344.695 335.375 343.49 335.375C341.568 335.375 339.962 335.963 338.671 337.139C337.381 338.315 336.678 340.05 336.563 342.345H350.03ZM362.725 352.111C363.241 353.43 363.499 354.793 363.499 356.198C363.499 357.804 363.083 359.109 362.251 360.113C361.42 361.146 360.158 361.662 358.465 361.662V359.683C359.182 359.683 359.713 359.497 360.057 359.124C360.401 358.751 360.573 358.12 360.573 357.231V356.844H358.078V352.111H362.725ZM390.033 351.207V355.467H387.021C384.497 355.467 382.576 354.864 381.256 353.66C379.966 352.426 379.32 350.39 379.32 347.55V335.934H375.921V331.761H379.32V325.867H384.268V331.761H389.99V335.934H384.268V347.637C384.268 348.985 384.512 349.917 384.999 350.433C385.516 350.949 386.405 351.207 387.667 351.207H390.033ZM399.532 336.407C400.335 334.859 401.483 333.64 402.974 332.75C404.465 331.833 406.186 331.374 408.137 331.374V336.709H406.674C404.523 336.709 402.788 337.239 401.468 338.3C400.177 339.333 399.532 341.054 399.532 343.463V355.467H394.627V331.761H399.532V336.407ZM414.608 331.761L421.707 349.185L428.29 331.761H433.754L419.427 366.739H413.963L419.083 354.907L409.101 331.761H414.608ZM456.57 331.46C458.722 331.46 460.557 331.99 462.077 333.052C463.598 334.113 464.673 335.518 465.304 337.268V331.761H470.209V355.467H465.304V349.96C464.673 351.709 463.598 353.115 462.077 354.176C460.557 355.237 458.722 355.768 456.57 355.768C454.505 355.768 452.655 355.28 451.02 354.305C449.414 353.33 448.152 351.925 447.234 350.089C446.316 348.253 445.858 346.088 445.858 343.592C445.858 341.126 446.316 338.974 447.234 337.139C448.152 335.303 449.414 333.898 451.02 332.923C452.655 331.947 454.505 331.46 456.57 331.46ZM458.076 335.762C455.896 335.762 454.147 336.465 452.827 337.87C451.537 339.247 450.891 341.154 450.891 343.592C450.891 346.03 451.537 347.952 452.827 349.357C454.147 350.734 455.896 351.423 458.076 351.423C459.453 351.423 460.686 351.107 461.776 350.476C462.866 349.816 463.727 348.899 464.358 347.723C464.989 346.547 465.304 345.17 465.304 343.592C465.304 342.043 464.989 340.681 464.358 339.505C463.727 338.3 462.866 337.383 461.776 336.752C460.686 336.092 459.453 335.762 458.076 335.762ZM485.603 331.46C487.754 331.46 489.59 331.99 491.11 333.052C492.63 334.113 493.706 335.518 494.337 337.268V331.761H499.241V355.725C499.241 357.933 498.782 359.884 497.864 361.576C496.975 363.297 495.685 364.645 493.992 365.62C492.3 366.596 490.292 367.083 487.969 367.083C484.642 367.083 481.946 366.294 479.881 364.717C477.844 363.139 476.568 361.002 476.052 358.306H480.913C481.315 359.712 482.089 360.802 483.236 361.576C484.384 362.379 485.847 362.781 487.625 362.781C489.575 362.781 491.181 362.178 492.443 360.974C493.706 359.769 494.337 358.02 494.337 355.725V349.96C493.706 351.709 492.63 353.115 491.11 354.176C489.59 355.237 487.754 355.768 485.603 355.768C483.538 355.768 481.688 355.28 480.053 354.305C478.447 353.33 477.185 351.925 476.267 350.089C475.349 348.253 474.89 346.088 474.89 343.592C474.89 341.126 475.349 338.974 476.267 337.139C477.185 335.303 478.447 333.898 480.053 332.923C481.688 331.947 483.538 331.46 485.603 331.46ZM487.109 335.762C484.929 335.762 483.179 336.465 481.86 337.87C480.569 339.247 479.924 341.154 479.924 343.592C479.924 346.03 480.569 347.952 481.86 349.357C483.179 350.734 484.929 351.423 487.109 351.423C488.485 351.423 489.719 351.107 490.809 350.476C491.899 349.816 492.759 348.899 493.39 347.723C494.021 346.547 494.337 345.17 494.337 343.592C494.337 342.043 494.021 340.681 493.39 339.505C492.759 338.3 491.899 337.383 490.809 336.752C489.719 336.092 488.485 335.762 487.109 335.762ZM514.635 331.46C516.786 331.46 518.622 331.99 520.142 333.052C521.662 334.113 522.738 335.518 523.369 337.268V331.761H528.274V355.467H523.369V349.96C522.738 351.709 521.662 353.115 520.142 354.176C518.622 355.237 516.786 355.768 514.635 355.768C512.57 355.768 510.72 355.28 509.085 354.305C507.479 353.33 506.217 351.925 505.299 350.089C504.381 348.253 503.922 346.088 503.922 343.592C503.922 341.126 504.381 338.974 505.299 337.139C506.217 335.303 507.479 333.898 509.085 332.923C510.72 331.947 512.57 331.46 514.635 331.46ZM516.141 335.762C513.961 335.762 512.212 336.465 510.892 337.87C509.601 339.247 508.956 341.154 508.956 343.592C508.956 346.03 509.601 347.952 510.892 349.357C512.212 350.734 513.961 351.423 516.141 351.423C517.518 351.423 518.751 351.107 519.841 350.476C520.931 349.816 521.791 348.899 522.422 347.723C523.053 346.547 523.369 345.17 523.369 343.592C523.369 342.043 523.053 340.681 522.422 339.505C521.791 338.3 520.931 337.383 519.841 336.752C518.751 336.092 517.518 335.762 516.141 335.762ZM533.471 324.877C533.471 324.045 533.758 323.357 534.331 322.812C534.905 322.267 535.665 321.995 536.612 321.995C537.558 321.995 538.318 322.267 538.892 322.812C539.494 323.357 539.795 324.045 539.795 324.877C539.795 325.709 539.494 326.383 538.892 326.899C538.318 327.416 537.558 327.674 536.612 327.674C535.665 327.674 534.905 327.416 534.331 326.899C533.758 326.383 533.471 325.709 533.471 324.877ZM539.064 331.761V355.467H534.159V331.761H539.064ZM558.25 331.374C561.004 331.374 563.212 332.263 564.876 334.041C566.54 335.819 567.371 338.358 567.371 341.656V355.467H562.467V342.173C562.467 340.05 561.922 338.415 560.832 337.268C559.742 336.092 558.25 335.504 556.357 335.504C554.407 335.504 552.844 336.135 551.668 337.397C550.492 338.63 549.904 340.452 549.904 342.861V355.467H544.999V331.761H549.904V336.967C550.535 335.188 551.596 333.812 553.088 332.836C554.579 331.861 556.3 331.374 558.25 331.374ZM588.096 323.629V355.467H583.191V323.629H588.096ZM603.539 331.46C605.69 331.46 607.526 331.99 609.046 333.052C610.566 334.113 611.642 335.518 612.273 337.268V331.761H617.177V355.467H612.273V349.96C611.642 351.709 610.566 353.115 609.046 354.176C607.526 355.237 605.69 355.768 603.539 355.768C601.474 355.768 599.624 355.28 597.989 354.305C596.383 353.33 595.121 351.925 594.203 350.089C593.285 348.253 592.826 346.088 592.826 343.592C592.826 341.126 593.285 338.974 594.203 337.139C595.121 335.303 596.383 333.898 597.989 332.923C599.624 331.947 601.474 331.46 603.539 331.46ZM605.045 335.762C602.865 335.762 601.115 336.465 599.796 337.87C598.505 339.247 597.86 341.154 597.86 343.592C597.86 346.03 598.505 347.952 599.796 349.357C601.115 350.734 602.865 351.423 605.045 351.423C606.422 351.423 607.655 351.107 608.745 350.476C609.835 349.816 610.695 348.899 611.326 347.723C611.957 346.547 612.273 345.17 612.273 343.592C612.273 342.043 611.957 340.681 611.326 339.505C610.695 338.3 609.835 337.383 608.745 336.752C607.655 336.092 606.422 335.762 605.045 335.762ZM634.981 351.207V355.467H631.969C629.445 355.467 627.523 354.864 626.204 353.66C624.913 352.426 624.268 350.39 624.268 347.55V335.934H620.869V331.761H624.268V325.867H629.216V331.761H634.938V335.934H629.216V347.637C629.216 348.985 629.459 349.917 629.947 350.433C630.463 350.949 631.352 351.207 632.614 351.207H634.981ZM661.603 342.474C661.603 343.277 661.546 343.98 661.431 344.582H643.189C643.275 347.02 643.949 348.827 645.211 350.003C646.473 351.179 648.036 351.767 649.901 351.767C651.536 351.767 652.912 351.351 654.031 350.519C655.178 349.687 655.881 348.583 656.139 347.206H661.388C661.072 348.87 660.413 350.347 659.409 351.638C658.405 352.928 657.1 353.947 655.494 354.692C653.888 355.409 652.095 355.768 650.116 355.768C647.821 355.768 645.785 355.28 644.007 354.305C642.257 353.33 640.88 351.925 639.876 350.089C638.872 348.253 638.37 346.088 638.37 343.592C638.37 341.126 638.872 338.974 639.876 337.139C640.88 335.303 642.257 333.898 644.007 332.923C645.785 331.947 647.821 331.46 650.116 331.46C652.439 331.46 654.461 331.947 656.182 332.923C657.932 333.869 659.265 335.188 660.183 336.881C661.13 338.544 661.603 340.409 661.603 342.474ZM656.655 342.345C656.713 340.796 656.44 339.505 655.838 338.473C655.264 337.411 654.461 336.637 653.429 336.149C652.425 335.633 651.321 335.375 650.116 335.375C648.194 335.375 646.588 335.963 645.297 337.139C644.007 338.315 643.304 340.05 643.189 342.345H656.655ZM671.243 336.407C672.046 334.859 673.194 333.64 674.685 332.75C676.177 331.833 677.898 331.374 679.848 331.374V336.709H678.385C676.234 336.709 674.499 337.239 673.179 338.3C671.889 339.333 671.243 341.054 671.243 343.463V355.467H666.339V331.761H671.243V336.407ZM687.395 350.046V355.467H681.845V350.046H687.395ZM695.588 350.046V355.467H690.038V350.046H695.588ZM703.781 350.046V355.467H698.231V350.046H703.781Z" fill="#3A3A3A"/>
</g>
</g>
<defs>
<linearGradient id="paint0_linear" x1="-37.2183" y1="321.806" x2="675.169" y2="16.1658" gradientUnits="userSpaceOnUse">
<stop stop-color="#3300A3"/>
<stop offset="0.1095" stop-color="#3904A4"/>
<stop offset="0.2523" stop-color="#4910A7"/>
<stop offset="0.4136" stop-color="#6424AC"/>
<stop offset="0.5884" stop-color="#8A3FB4"/>
<stop offset="0.7742" stop-color="#BA62BD"/>
<stop offset="0.9664" stop-color="#F48CC8"/>
<stop offset="1" stop-color="#FF94CA"/>
</linearGradient>
<clipPath id="clip0">
<rect width="707" height="480" fill="white"/>
</clipPath>
</defs>
</svg>
