<svg width="1103" height="776" viewBox="0 0 1103 776" fill="none" xmlns="http://www.w3.org/2000/svg">
<g id="sender" clip-path="url(#clip0)">
<g id="background" filter="url(#filter0_d)">
<path id="Vector" d="M944.25 683.4H139.45C118.85 683.4 102 666.55 102 645.95C102 599.43 102 552.91 102 506.38C102 363.5 102 220.63 102 77.75C102.01 75.23 102.3 62 113 51.3C119.79 44.51 129.15 40.3 139.45 40.3H944.26C964.86 40.3 981.71 57.15 981.71 77.75V645.95C981.7 666.54 964.85 683.4 944.25 683.4Z" fill="url(#paint0_linear)"/>
<path id="Vector_2" d="M981.7 357.52V647.19C981.7 667.11 965.4 683.4 945.49 683.4H138.21C118.29 683.4 102 667.1 102 647.19C102 585.18 102 523.17 102 461.16C102 450.41 102 439.67 102 428.92C102 389.37 102 349.83 102 310.28C263.29 317.77 387.1 348.31 471.48 377.02C588.91 416.96 664.19 462.66 774.83 449.82C861.12 439.81 930.8 398.6 981.7 357.52Z" fill="white" stroke="white" stroke-width="2" stroke-miterlimit="10"/>
<g id="Mask Group">
<mask id="mask0" mask-type="alpha" maskUnits="userSpaceOnUse" x="103" y="40" width="880" height="644">
<path id="Vector_3" d="M945.53 683.1H140.73C120.13 683.1 103.28 666.25 103.28 645.65C103.28 599.13 103.28 552.61 103.28 506.08C103.28 363.2 103.28 220.33 103.28 77.45C103.29 74.93 103.58 61.7 114.28 51C121.07 44.21 130.43 40 140.73 40H945.54C966.14 40 982.99 56.85 982.99 77.45V645.65C982.98 666.24 966.13 683.1 945.53 683.1Z" fill="url(#paint1_linear)"/>
</mask>
<g mask="url(#mask0)">
<path id="Vector_4" d="M99.8399 493.07C100.51 502.47 109.87 508.68 118.73 505.62C178.55 484.96 263.81 450.87 358.85 395.74C480.25 325.31 525.6 273.93 635.81 203.34C704.88 159.1 816.24 99.28 962.06 50.41C966.37 48.97 969.76 45.56 971.17 41.21C971.2 41.12 971.23 41.04 971.25 40.95C974.2 31.7 967.46 22.2 957.81 22.09C664.38 18.94 424.92 44.28 131.11 40.82C122.73 40.72 101.52 61.23 102.01 71.43C109.44 225.99 88.8799 339.13 99.8399 493.07Z" fill="url(#paint2_linear)"/>
</g>
</g>
</g>
<g id="stars" filter="url(#filter1_d)">
<path id="Vector_5" d="M207.01 138.12L225.46 148.31L240.85 133.91L236.86 154.61L255.31 164.8L234.39 167.4L230.4 188.1L221.47 169.01L200.55 171.61L215.94 157.21L207.01 138.12Z" fill="white"/>
<path id="Vector_6" d="M244.38 230.99L254.52 243.35L269.4 237.53L260.78 250.99L270.92 263.35L255.45 259.31L246.83 272.77L245.9 256.81L230.43 252.77L245.32 246.95L244.38 230.99Z" fill="white"/>
<path id="Vector_7" d="M319.85 103.32L330.6 116.42L346.38 110.25L337.24 124.52L347.99 137.62L331.59 133.34L322.45 147.61L321.46 130.69L305.06 126.41L320.84 120.24L319.85 103.32Z" fill="white"/>
<path id="Vector_8" d="M360.57 177.27L368.83 187.34L380.96 182.6L373.94 193.57L382.2 203.64L369.59 200.35L362.57 211.32L361.8 198.31L349.2 195.02L361.33 190.27L360.57 177.27Z" fill="white"/>
<path id="Vector_9" d="M361.86 262.55L368.31 270.42L377.8 266.71L372.31 275.28L378.76 283.15L368.91 280.58L363.42 289.15L362.82 278.99L352.98 276.42L362.46 272.71L361.86 262.55Z" fill="white"/>
<path id="Vector_10" d="M452.5 176.61L457.99 183.31L466.07 180.15L461.39 187.45L466.89 194.15L458.5 191.96L453.83 199.26L453.32 190.61L444.93 188.42L453 185.26L452.5 176.61Z" fill="white"/>
<path id="Vector_11" d="M910.98 127.87L892.53 138.06L877.14 123.67L881.13 144.36L862.68 154.55L883.6 157.15L887.59 177.85L896.52 158.76L917.44 161.36L902.05 146.96L910.98 127.87Z" fill="white"/>
<path id="Vector_12" d="M873.61 220.74L863.47 233.1L848.59 227.28L857.21 240.74L847.07 253.1L862.54 249.06L871.16 262.52L872.09 246.56L887.56 242.52L872.67 236.7L873.61 220.74Z" fill="white"/>
<path id="Vector_13" d="M798.14 93.0701L787.39 106.18L771.61 100L780.75 114.27L770 127.37L786.4 123.09L795.54 137.36L796.53 120.45L812.93 116.16L797.15 109.99L798.14 93.0701Z" fill="white"/>
<path id="Vector_14" d="M757.42 167.02L749.16 177.09L737.03 172.35L744.05 183.32L735.79 193.39L748.4 190.1L755.42 201.07L756.19 188.06L768.79 184.77L756.66 180.03L757.42 167.02Z" fill="white"/>
<path id="Vector_15" d="M756.13 252.3L749.68 260.17L740.2 256.46L745.69 265.03L739.23 272.9L749.08 270.33L754.57 278.9L755.17 268.74L765.01 266.17L755.53 262.46L756.13 252.3Z" fill="white"/>
<path id="Vector_16" d="M665.49 166.36L660 173.06L651.92 169.9L656.6 177.2L651.1 183.9L659.49 181.71L664.16 189.01L664.67 180.36L673.06 178.17L664.99 175.01L665.49 166.36Z" fill="white"/>
</g>
<g id="mailBox">
<g id="Group">
<g id="Ellipse 1" filter="url(#filter2_f)">
<ellipse cx="540.78" cy="494.5" rx="134.5" ry="21.5" fill="#C4C4C4"/>
</g>
<path id="Vector_17" d="M669.54 495.66H416.55C409.23 495.66 403.24 489.67 403.24 482.35V321.34V318.21C403.24 317.44 403.28 316.71 403.35 316.01C403.96 310.06 407.15 306.42 412.12 300.46L530.21 183.29C537.15 175.88 548.92 175.91 555.82 183.35L670.65 298.23C677.31 305.99 682.86 310.87 682.86 318.19V482.33C682.85 489.68 676.86 495.66 669.54 495.66Z" fill="#48C6D3"/>
<path id="Vector_18" d="M628.38 494.48H452.99C446.39 494.48 440.99 489.08 440.99 482.48V241.03C440.99 234.43 446.39 229.03 452.99 229.03H628.38C634.98 229.03 640.38 234.43 640.38 241.03V482.48C640.38 489.08 634.98 494.48 628.38 494.48Z" fill="white"/>
<path id="Vector_19" opacity="0.39" d="M614.47 310.44H464.54C463.92 310.44 463.41 309.93 463.41 309.31V302.14C463.41 301.52 463.92 301.01 464.54 301.01H614.47C615.09 301.01 615.6 301.52 615.6 302.14V309.31C615.6 309.93 615.09 310.44 614.47 310.44Z" fill="#AFAFAF"/>
<path id="Vector_20" opacity="0.39" d="M614.47 324.59H464.54C463.92 324.59 463.41 324.08 463.41 323.46V316.29C463.41 315.67 463.92 315.16 464.54 315.16H614.47C615.09 315.16 615.6 315.67 615.6 316.29V323.46C615.6 324.09 615.09 324.59 614.47 324.59Z" fill="#AFAFAF"/>
<path id="Vector_21" opacity="0.39" d="M614.47 339.93H464.54C463.92 339.93 463.41 339.42 463.41 338.8V331.63C463.41 331.01 463.92 330.5 464.54 330.5H614.47C615.09 330.5 615.6 331.01 615.6 331.63V338.8C615.6 339.42 615.09 339.93 614.47 339.93Z" fill="#AFAFAF"/>
<path id="Vector_22" opacity="0.39" d="M614.47 361.17H464.54C463.92 361.17 463.41 360.66 463.41 360.04V352.87C463.41 352.25 463.92 351.74 464.54 351.74H614.47C615.09 351.74 615.6 352.25 615.6 352.87V360.04C615.6 360.66 615.09 361.17 614.47 361.17Z" fill="#AFAFAF"/>
<path id="Vector_23" opacity="0.39" d="M614.47 375.33H464.54C463.92 375.33 463.41 374.82 463.41 374.2V367.03C463.41 366.41 463.92 365.9 464.54 365.9H614.47C615.09 365.9 615.6 366.41 615.6 367.03V374.2C615.6 374.82 615.09 375.33 614.47 375.33Z" fill="#AFAFAF"/>
<path id="Vector_24" opacity="0.39" d="M614.47 389.48H464.54C463.92 389.48 463.41 388.97 463.41 388.35V381.18C463.41 380.56 463.92 380.05 464.54 380.05H614.47C615.09 380.05 615.6 380.56 615.6 381.18V388.35C615.6 388.97 615.09 389.48 614.47 389.48Z" fill="#AFAFAF"/>
<path id="Vector_25" opacity="0.39" d="M551.94 403.64H525.89C525.27 403.64 524.76 403.13 524.76 402.51V395.34C524.76 394.72 525.27 394.21 525.89 394.21H551.94C552.56 394.21 553.07 394.72 553.07 395.34V402.51C553.07 403.13 552.57 403.64 551.94 403.64Z" fill="#AFAFAF"/>
<g id="Group_2">
<g id="Mask Group_2">
<mask id="mask1" mask-type="alpha" maskUnits="userSpaceOnUse" x="403" y="176" width="281" height="321">
<path id="Vector_26" d="M669.942 497H416.608C409.278 497 403.28 490.952 403.28 483.561V320.985V317.825C403.28 317.047 403.32 316.31 403.39 315.603C404.001 309.595 407.195 305.92 412.172 299.902L530.422 181.593C537.372 174.111 549.158 174.141 556.067 181.653L671.053 297.65C677.722 305.486 683.28 310.413 683.28 317.804V483.54C683.27 490.962 677.272 497 669.942 497Z" fill="#48C6D3"/>
</mask>
<g mask="url(#mask1)">
<path id="Vector_27" d="M403.622 312C408.195 321.506 416.789 334.105 428.349 346.223C437.686 356.006 446.14 361.701 448.411 363.269C464.122 374.096 508.177 410.696 612.28 503C539.075 503 465.871 503 392.676 503C384.876 443.547 399.3 378.91 391.49 319.457C403.391 315.288 402.647 312.635 403.622 312Z" fill="#FECC50"/>
</g>
</g>
<path id="Vector_28" d="M682.85 314.57C681.32 313.25 680.58 312.62 679.05 311.31C620.74 319.89 590.12 341.88 573.06 364.32C551.56 392.59 555.85 415.96 534.24 444.17C508.56 477.69 466.43 491.6 428.33 496.85C508.55 496.85 589.33 496.3 669.55 496.3C676.32 494.79 681.55 490.61 682.86 485.21C683.16 483.96 683.39 482.07 682.86 479.66V314.57H682.85Z" fill="url(#paint3_linear)"/>
</g>
<g id="Group_3" opacity="0.8">
<path id="Vector_29" opacity="0.7" d="M572.04 288.02L560.38 287.91L545.95 259.71H557.46L572.04 288.02Z" fill="#B2B2B2"/>
<path id="Vector_30" opacity="0.7" d="M510.1 288.02L521.76 287.91L536.19 259.71H524.68L510.1 288.02Z" fill="#B2B2B2"/>
<path id="Vector_31" opacity="0.7" d="M524.68 259.71H557.46L541.07 283.86L524.68 259.71Z" fill="#B2B2B2"/>
</g>
</g>
</g>
<g id="text">
<path id="Your conformation link has been sent to your mail" d="M340.357 538.606L331.238 556.028V566H326.776V556.028L317.619 538.606H322.741L329.027 551.294L335.312 538.606H340.357ZM353.439 544.349C355.509 544.349 357.371 544.788 359.027 545.668C360.682 546.547 361.976 547.815 362.907 549.47C363.838 551.126 364.304 553.066 364.304 555.291C364.304 557.541 363.838 559.494 362.907 561.15C361.976 562.805 360.682 564.073 359.027 564.952C357.371 565.832 355.509 566.272 353.439 566.272C351.37 566.272 349.507 565.832 347.852 564.952C346.222 564.073 344.929 562.805 343.972 561.15C343.04 559.468 342.575 557.515 342.575 555.291C342.575 553.066 343.04 551.126 343.972 549.47C344.929 547.815 346.222 546.547 347.852 545.668C349.507 544.788 351.37 544.349 353.439 544.349ZM353.439 548.19C352.301 548.19 351.253 548.449 350.296 548.966C349.339 549.483 348.563 550.285 347.968 551.372C347.399 552.432 347.115 553.739 347.115 555.291C347.115 556.869 347.399 558.188 347.968 559.248C348.563 560.309 349.339 561.098 350.296 561.615C351.253 562.133 352.301 562.391 353.439 562.391C354.577 562.391 355.625 562.133 356.582 561.615C357.539 561.098 358.302 560.309 358.872 559.248C359.466 558.188 359.764 556.869 359.764 555.291C359.764 553.739 359.466 552.432 358.872 551.372C358.302 550.285 357.539 549.483 356.582 548.966C355.625 548.449 354.577 548.19 353.439 548.19ZM388.268 544.62V566H383.806V561.344C383.262 562.922 382.318 564.15 380.973 565.03C379.628 565.884 378.063 566.31 376.278 566.31C373.795 566.31 371.803 565.509 370.303 563.905C368.802 562.301 368.052 560.012 368.052 557.037V544.62H372.475V556.571C372.475 558.511 372.967 560.012 373.95 561.072C374.933 562.107 376.278 562.624 377.985 562.624C379.744 562.624 381.154 562.055 382.215 560.917C383.275 559.779 383.806 558.123 383.806 555.95V544.62H388.268ZM397.989 548.811C398.713 547.414 399.748 546.315 401.093 545.513C402.438 544.685 403.99 544.271 405.749 544.271V549.082H404.43C402.49 549.082 400.925 549.561 399.735 550.518C398.571 551.449 397.989 553.001 397.989 555.174V566H393.565V544.62H397.989V548.811ZM427.664 544.349C430.432 544.349 432.721 545.086 434.532 546.56C436.343 548.009 437.468 549.988 437.908 552.497H433.213C432.954 551.152 432.32 550.104 431.311 549.354C430.328 548.578 429.087 548.19 427.586 548.19C425.879 548.19 424.456 548.798 423.318 550.014C422.18 551.204 421.611 552.963 421.611 555.291C421.611 557.619 422.18 559.391 423.318 560.607C424.456 561.822 425.879 562.43 427.586 562.43C429.087 562.43 430.328 562.042 431.311 561.266C432.32 560.49 432.954 559.43 433.213 558.084H437.908C437.468 560.594 436.343 562.585 434.532 564.06C432.721 565.534 430.432 566.272 427.664 566.272C425.595 566.272 423.758 565.832 422.154 564.952C420.576 564.073 419.335 562.805 418.429 561.15C417.524 559.494 417.071 557.541 417.071 555.291C417.071 553.066 417.524 551.126 418.429 549.47C419.335 547.815 420.576 546.547 422.154 545.668C423.758 544.788 425.595 544.349 427.664 544.349ZM451.959 544.349C454.029 544.349 455.891 544.788 457.547 545.668C459.202 546.547 460.496 547.815 461.427 549.47C462.358 551.126 462.824 553.066 462.824 555.291C462.824 557.541 462.358 559.494 461.427 561.15C460.496 562.805 459.202 564.073 457.547 564.952C455.891 565.832 454.029 566.272 451.959 566.272C449.89 566.272 448.028 565.832 446.372 564.952C444.742 564.073 443.449 562.805 442.492 561.15C441.561 559.468 441.095 557.515 441.095 555.291C441.095 553.066 441.561 551.126 442.492 549.47C443.449 547.815 444.742 546.547 446.372 545.668C448.028 544.788 449.89 544.349 451.959 544.349ZM451.959 548.19C450.821 548.19 449.774 548.449 448.817 548.966C447.859 549.483 447.083 550.285 446.488 551.372C445.919 552.432 445.635 553.739 445.635 555.291C445.635 556.869 445.919 558.188 446.488 559.248C447.083 560.309 447.859 561.098 448.817 561.615C449.774 562.133 450.821 562.391 451.959 562.391C453.098 562.391 454.145 562.133 455.102 561.615C456.06 561.098 456.823 560.309 457.392 559.248C457.987 558.188 458.284 556.869 458.284 555.291C458.284 553.739 457.987 552.432 457.392 551.372C456.823 550.285 456.06 549.483 455.102 548.966C454.145 548.449 453.098 548.19 451.959 548.19ZM479.028 544.271C481.511 544.271 483.503 545.073 485.003 546.677C486.503 548.281 487.254 550.57 487.254 553.545V566H482.83V554.01C482.83 552.096 482.339 550.622 481.356 549.587C480.373 548.526 479.028 547.996 477.32 547.996C475.561 547.996 474.152 548.565 473.091 549.703C472.03 550.816 471.5 552.458 471.5 554.631V566H467.077V544.62H471.5V549.315C472.069 547.711 473.026 546.47 474.371 545.59C475.717 544.711 477.269 544.271 479.028 544.271ZM502.399 540.197C500.666 540.119 499.45 540.404 498.751 541.05C498.053 541.671 497.704 542.745 497.704 544.271V544.62H502.399V548.423H497.704V566H493.242V548.423H490.331V544.62H493.242V543.922C493.242 541.309 494.005 539.356 495.531 538.063C497.057 536.743 499.346 536.161 502.399 536.317V540.197ZM515.732 544.349C517.802 544.349 519.664 544.788 521.32 545.668C522.975 546.547 524.269 547.815 525.2 549.47C526.131 551.126 526.597 553.066 526.597 555.291C526.597 557.541 526.131 559.494 525.2 561.15C524.269 562.805 522.975 564.073 521.32 564.952C519.664 565.832 517.802 566.272 515.732 566.272C513.663 566.272 511.8 565.832 510.145 564.952C508.515 564.073 507.222 562.805 506.265 561.15C505.333 559.468 504.868 557.515 504.868 555.291C504.868 553.066 505.333 551.126 506.265 549.47C507.222 547.815 508.515 546.547 510.145 545.668C511.8 544.788 513.663 544.349 515.732 544.349ZM515.732 548.19C514.594 548.19 513.547 548.449 512.589 548.966C511.632 549.483 510.856 550.285 510.261 551.372C509.692 552.432 509.408 553.739 509.408 555.291C509.408 556.869 509.692 558.188 510.261 559.248C510.856 560.309 511.632 561.098 512.589 561.615C513.547 562.133 514.594 562.391 515.732 562.391C516.871 562.391 517.918 562.133 518.875 561.615C519.832 561.098 520.596 560.309 521.165 559.248C521.76 558.188 522.057 556.869 522.057 555.291C522.057 553.739 521.76 552.432 521.165 551.372C520.596 550.285 519.832 549.483 518.875 548.966C517.918 548.449 516.871 548.19 515.732 548.19ZM535.273 548.811C535.997 547.414 537.032 546.315 538.377 545.513C539.722 544.685 541.274 544.271 543.033 544.271V549.082H541.714C539.774 549.082 538.209 549.561 537.019 550.518C535.855 551.449 535.273 553.001 535.273 555.174V566H530.85V544.62H535.273V548.811ZM573.082 544.271C575.617 544.271 577.635 545.073 579.135 546.677C580.661 548.281 581.424 550.57 581.424 553.545V566H577.001V554.01C577.001 552.148 576.535 550.712 575.604 549.703C574.673 548.669 573.392 548.151 571.763 548.151C570.03 548.151 568.646 548.707 567.611 549.82C566.602 550.906 566.098 552.51 566.098 554.631V566H561.674V554.01C561.674 552.148 561.209 550.712 560.277 549.703C559.346 548.669 558.066 548.151 556.436 548.151C554.703 548.151 553.319 548.707 552.284 549.82C551.275 550.906 550.771 552.51 550.771 554.631V566H546.348V544.62H550.771V549.082C551.314 547.53 552.22 546.34 553.487 545.513C554.755 544.685 556.242 544.271 557.949 544.271C559.734 544.271 561.273 544.711 562.567 545.59C563.886 546.47 564.843 547.737 565.438 549.393C566.059 547.789 567.055 546.534 568.426 545.629C569.797 544.724 571.349 544.271 573.082 544.271ZM595.164 544.349C597.105 544.349 598.76 544.827 600.131 545.784C601.502 546.741 602.472 548.009 603.041 549.587V544.62H607.465V566H603.041V561.033C602.472 562.611 601.502 563.879 600.131 564.836C598.76 565.793 597.105 566.272 595.164 566.272C593.302 566.272 591.634 565.832 590.159 564.952C588.71 564.073 587.572 562.805 586.744 561.15C585.917 559.494 585.503 557.541 585.503 555.291C585.503 553.066 585.917 551.126 586.744 549.47C587.572 547.815 588.71 546.547 590.159 545.668C591.634 544.788 593.302 544.349 595.164 544.349ZM596.523 548.229C594.557 548.229 592.979 548.863 591.789 550.13C590.625 551.372 590.043 553.092 590.043 555.291C590.043 557.489 590.625 559.223 591.789 560.49C592.979 561.732 594.557 562.353 596.523 562.353C597.764 562.353 598.877 562.068 599.859 561.499C600.842 560.904 601.619 560.076 602.188 559.016C602.757 557.955 603.041 556.713 603.041 555.291C603.041 553.894 602.757 552.665 602.188 551.605C601.619 550.518 600.842 549.69 599.859 549.121C598.877 548.526 597.764 548.229 596.523 548.229ZM623.521 562.159V566H620.805C618.529 566 616.795 565.457 615.605 564.37C614.441 563.258 613.859 561.421 613.859 558.86V548.384H610.794V544.62H613.859V539.304H618.322V544.62H623.482V548.384H618.322V558.938C618.322 560.154 618.541 560.995 618.981 561.46C619.447 561.926 620.249 562.159 621.387 562.159H623.521ZM627.044 538.412C627.044 537.662 627.302 537.041 627.82 536.549C628.337 536.058 629.023 535.812 629.876 535.812C630.73 535.812 631.415 536.058 631.933 536.549C632.476 537.041 632.748 537.662 632.748 538.412C632.748 539.162 632.476 539.77 631.933 540.236C631.415 540.701 630.73 540.934 629.876 540.934C629.023 540.934 628.337 540.701 627.82 540.236C627.302 539.77 627.044 539.162 627.044 538.412ZM632.088 544.62V566H627.665V544.62H632.088ZM647.219 544.349C649.288 544.349 651.151 544.788 652.806 545.668C654.462 546.547 655.755 547.815 656.687 549.47C657.618 551.126 658.083 553.066 658.083 555.291C658.083 557.541 657.618 559.494 656.687 561.15C655.755 562.805 654.462 564.073 652.806 564.952C651.151 565.832 649.288 566.272 647.219 566.272C645.149 566.272 643.287 565.832 641.631 564.952C640.002 564.073 638.708 562.805 637.751 561.15C636.82 559.468 636.354 557.515 636.354 555.291C636.354 553.066 636.82 551.126 637.751 549.47C638.708 547.815 640.002 546.547 641.631 545.668C643.287 544.788 645.149 544.349 647.219 544.349ZM647.219 548.19C646.081 548.19 645.033 548.449 644.076 548.966C643.119 549.483 642.343 550.285 641.748 551.372C641.179 552.432 640.894 553.739 640.894 555.291C640.894 556.869 641.179 558.188 641.748 559.248C642.343 560.309 643.119 561.098 644.076 561.615C645.033 562.133 646.081 562.391 647.219 562.391C648.357 562.391 649.405 562.133 650.362 561.615C651.319 561.098 652.082 560.309 652.651 559.248C653.246 558.188 653.544 556.869 653.544 555.291C653.544 553.739 653.246 552.432 652.651 551.372C652.082 550.285 651.319 549.483 650.362 548.966C649.405 548.449 648.357 548.19 647.219 548.19ZM674.287 544.271C676.77 544.271 678.762 545.073 680.263 546.677C681.763 548.281 682.513 550.57 682.513 553.545V566H678.09V554.01C678.09 552.096 677.598 550.622 676.615 549.587C675.632 548.526 674.287 547.996 672.58 547.996C670.821 547.996 669.411 548.565 668.35 549.703C667.29 550.816 666.76 552.458 666.76 554.631V566H662.336V544.62H666.76V549.315C667.329 547.711 668.286 546.47 669.631 545.59C670.976 544.711 672.528 544.271 674.287 544.271ZM701.204 537.287V566H696.78V537.287H701.204ZM705.936 538.412C705.936 537.662 706.194 537.041 706.712 536.549C707.229 536.058 707.915 535.812 708.768 535.812C709.622 535.812 710.307 536.058 710.825 536.549C711.368 537.041 711.64 537.662 711.64 538.412C711.64 539.162 711.368 539.77 710.825 540.236C710.307 540.701 709.622 540.934 708.768 540.934C707.915 540.934 707.229 540.701 706.712 540.236C706.194 539.77 705.936 539.162 705.936 538.412ZM710.98 544.62V566H706.557V544.62H710.98ZM728.284 544.271C730.767 544.271 732.759 545.073 734.259 546.677C735.76 548.281 736.51 550.57 736.51 553.545V566H732.086V554.01C732.086 552.096 731.595 550.622 730.612 549.587C729.629 548.526 728.284 547.996 726.576 547.996C724.817 547.996 723.408 548.565 722.347 549.703C721.287 550.816 720.756 552.458 720.756 554.631V566H716.333V544.62H720.756V549.315C721.325 547.711 722.282 546.47 723.628 545.59C724.973 544.711 726.525 544.271 728.284 544.271ZM753.789 566L746.106 556.494V566H741.683V537.287H746.106V553.739L753.711 544.62H759.027L749.715 555.252L759.26 566H753.789ZM299.38 602.271C301.863 602.271 303.855 603.073 305.355 604.677C306.856 606.281 307.606 608.57 307.606 611.545V624H303.182V612.01C303.182 610.096 302.691 608.622 301.708 607.587C300.725 606.526 299.38 605.996 297.673 605.996C295.914 605.996 294.504 606.565 293.443 607.703C292.383 608.816 291.852 610.458 291.852 612.631V624H287.429V595.287H291.852V607.315C292.421 605.711 293.379 604.47 294.724 603.59C296.069 602.711 297.621 602.271 299.38 602.271ZM321.354 602.349C323.294 602.349 324.95 602.827 326.321 603.784C327.692 604.741 328.662 606.009 329.231 607.587V602.62H333.654V624H329.231V619.033C328.662 620.611 327.692 621.879 326.321 622.836C324.95 623.793 323.294 624.272 321.354 624.272C319.492 624.272 317.823 623.832 316.349 622.952C314.9 622.073 313.762 620.805 312.934 619.15C312.106 617.494 311.692 615.541 311.692 613.291C311.692 611.066 312.106 609.126 312.934 607.47C313.762 605.815 314.9 604.547 316.349 603.668C317.823 602.788 319.492 602.349 321.354 602.349ZM322.712 606.229C320.746 606.229 319.168 606.863 317.978 608.13C316.814 609.372 316.232 611.092 316.232 613.291C316.232 615.489 316.814 617.223 317.978 618.49C319.168 619.732 320.746 620.353 322.712 620.353C323.954 620.353 325.066 620.068 326.049 619.499C327.032 618.904 327.808 618.076 328.377 617.016C328.946 615.955 329.231 614.713 329.231 613.291C329.231 611.894 328.946 610.665 328.377 609.605C327.808 608.518 327.032 607.69 326.049 607.121C325.066 606.526 323.954 606.229 322.712 606.229ZM345.986 602.349C348.495 602.349 350.5 602.995 352 604.289C353.526 605.556 354.457 607.263 354.794 609.411H350.603C350.422 608.246 349.918 607.315 349.09 606.617C348.288 605.892 347.214 605.53 345.869 605.53C344.757 605.53 343.89 605.802 343.27 606.345C342.675 606.863 342.377 607.574 342.377 608.479C342.377 609.152 342.597 609.695 343.037 610.109C343.477 610.523 344.02 610.846 344.666 611.079C345.339 611.312 346.283 611.57 347.499 611.855C349.103 612.217 350.396 612.592 351.379 612.98C352.388 613.368 353.242 613.989 353.94 614.843C354.664 615.671 355.027 616.809 355.027 618.257C355.027 620.042 354.341 621.491 352.97 622.603C351.625 623.715 349.801 624.272 347.499 624.272C344.835 624.272 342.675 623.651 341.019 622.409C339.389 621.167 338.406 619.434 338.07 617.21H342.377C342.506 618.374 343.024 619.318 343.929 620.042C344.835 620.767 346.025 621.129 347.499 621.129C348.56 621.129 349.387 620.857 349.982 620.314C350.603 619.745 350.914 619.033 350.914 618.18C350.914 617.43 350.681 616.835 350.215 616.395C349.749 615.955 349.167 615.619 348.469 615.386C347.771 615.127 346.813 614.869 345.598 614.61C344.046 614.248 342.778 613.886 341.795 613.524C340.838 613.161 340.01 612.579 339.312 611.777C338.639 610.95 338.303 609.837 338.303 608.44C338.303 606.63 338.976 605.168 340.321 604.056C341.692 602.918 343.58 602.349 345.986 602.349ZM380.818 602.349C382.68 602.349 384.336 602.788 385.785 603.668C387.259 604.547 388.41 605.815 389.238 607.47C390.066 609.126 390.48 611.066 390.48 613.291C390.48 615.541 390.066 617.494 389.238 619.15C388.41 620.805 387.259 622.073 385.785 622.952C384.336 623.832 382.68 624.272 380.818 624.272C378.878 624.272 377.222 623.793 375.851 622.836C374.48 621.879 373.523 620.611 372.98 619.033V624H368.557V595.287H372.98V607.587C373.523 606.009 374.48 604.741 375.851 603.784C377.222 602.827 378.878 602.349 380.818 602.349ZM379.46 606.229C378.218 606.229 377.106 606.526 376.123 607.121C375.14 607.69 374.364 608.518 373.795 609.605C373.226 610.665 372.941 611.894 372.941 613.291C372.941 614.713 373.226 615.955 373.795 617.016C374.364 618.076 375.14 618.904 376.123 619.499C377.106 620.068 378.218 620.353 379.46 620.353C381.426 620.353 383.004 619.732 384.194 618.49C385.384 617.223 385.979 615.489 385.979 613.291C385.979 611.118 385.384 609.398 384.194 608.13C383.004 606.863 381.426 606.229 379.46 606.229ZM414.607 612.282C414.607 613.006 414.555 613.64 414.451 614.183H398C398.077 616.382 398.685 618.012 399.823 619.072C400.961 620.133 402.371 620.663 404.053 620.663C405.527 620.663 406.769 620.288 407.778 619.538C408.812 618.788 409.446 617.792 409.679 616.55H414.413C414.128 618.05 413.533 619.383 412.628 620.547C411.722 621.711 410.545 622.629 409.097 623.302C407.648 623.948 406.031 624.272 404.247 624.272C402.177 624.272 400.341 623.832 398.737 622.952C397.159 622.073 395.917 620.805 395.012 619.15C394.106 617.494 393.654 615.541 393.654 613.291C393.654 611.066 394.106 609.126 395.012 607.47C395.917 605.815 397.159 604.547 398.737 603.668C400.341 602.788 402.177 602.349 404.247 602.349C406.342 602.349 408.166 602.788 409.718 603.668C411.296 604.521 412.498 605.711 413.326 607.238C414.18 608.738 414.607 610.419 414.607 612.282ZM410.144 612.165C410.196 610.769 409.95 609.605 409.407 608.673C408.89 607.716 408.166 607.018 407.234 606.578C406.329 606.112 405.333 605.88 404.247 605.88C402.513 605.88 401.065 606.41 399.901 607.47C398.737 608.531 398.103 610.096 398 612.165H410.144ZM438.744 612.282C438.744 613.006 438.692 613.64 438.589 614.183H422.137C422.215 616.382 422.822 618.012 423.961 619.072C425.099 620.133 426.509 620.663 428.19 620.663C429.665 620.663 430.906 620.288 431.915 619.538C432.95 618.788 433.583 617.792 433.816 616.55H438.55C438.266 618.05 437.671 619.383 436.765 620.547C435.86 621.711 434.683 622.629 433.234 623.302C431.786 623.948 430.169 624.272 428.384 624.272C426.315 624.272 424.478 623.832 422.874 622.952C421.296 622.073 420.055 620.805 419.149 619.15C418.244 617.494 417.791 615.541 417.791 613.291C417.791 611.066 418.244 609.126 419.149 607.47C420.055 605.815 421.296 604.547 422.874 603.668C424.478 602.788 426.315 602.349 428.384 602.349C430.479 602.349 432.303 602.788 433.855 603.668C435.433 604.521 436.636 605.711 437.464 607.238C438.317 608.738 438.744 610.419 438.744 612.282ZM434.282 612.165C434.334 610.769 434.088 609.605 433.545 608.673C433.027 607.716 432.303 607.018 431.372 606.578C430.466 606.112 429.471 605.88 428.384 605.88C426.651 605.88 425.202 606.41 424.038 607.47C422.874 608.531 422.24 610.096 422.137 612.165H434.282ZM454.966 602.271C457.449 602.271 459.441 603.073 460.941 604.677C462.442 606.281 463.192 608.57 463.192 611.545V624H458.769V612.01C458.769 610.096 458.277 608.622 457.294 607.587C456.311 606.526 454.966 605.996 453.259 605.996C451.5 605.996 450.09 606.565 449.029 607.703C447.969 608.816 447.438 610.458 447.438 612.631V624H443.015V602.62H447.438V607.315C448.008 605.711 448.965 604.47 450.31 603.59C451.655 602.711 453.207 602.271 454.966 602.271ZM484.482 602.349C486.992 602.349 488.996 602.995 490.497 604.289C492.023 605.556 492.954 607.263 493.29 609.411H489.1C488.919 608.246 488.414 607.315 487.587 606.617C486.785 605.892 485.711 605.53 484.366 605.53C483.254 605.53 482.387 605.802 481.766 606.345C481.171 606.863 480.874 607.574 480.874 608.479C480.874 609.152 481.094 609.695 481.533 610.109C481.973 610.523 482.516 610.846 483.163 611.079C483.836 611.312 484.78 611.57 485.996 611.855C487.599 612.217 488.893 612.592 489.876 612.98C490.885 613.368 491.738 613.989 492.437 614.843C493.161 615.671 493.523 616.809 493.523 618.257C493.523 620.042 492.838 621.491 491.467 622.603C490.122 623.715 488.298 624.272 485.996 624.272C483.331 624.272 481.171 623.651 479.516 622.409C477.886 621.167 476.903 619.434 476.567 617.21H480.874C481.003 618.374 481.521 619.318 482.426 620.042C483.331 620.767 484.521 621.129 485.996 621.129C487.056 621.129 487.884 620.857 488.479 620.314C489.1 619.745 489.41 619.033 489.41 618.18C489.41 617.43 489.177 616.835 488.712 616.395C488.246 615.955 487.664 615.619 486.966 615.386C486.267 615.127 485.31 614.869 484.094 614.61C482.542 614.248 481.275 613.886 480.292 613.524C479.335 613.161 478.507 612.579 477.808 611.777C477.136 610.95 476.8 609.837 476.8 608.44C476.8 606.63 477.472 605.168 478.817 604.056C480.188 602.918 482.077 602.349 484.482 602.349ZM517.826 612.282C517.826 613.006 517.774 613.64 517.67 614.183H501.218C501.296 616.382 501.904 618.012 503.042 619.072C504.18 620.133 505.59 620.663 507.271 620.663C508.746 620.663 509.988 620.288 510.996 619.538C512.031 618.788 512.665 617.792 512.898 616.55H517.632C517.347 618.05 516.752 619.383 515.847 620.547C514.941 621.711 513.764 622.629 512.316 623.302C510.867 623.948 509.25 624.272 507.465 624.272C505.396 624.272 503.559 623.832 501.956 622.952C500.378 622.073 499.136 620.805 498.231 619.15C497.325 617.494 496.873 615.541 496.873 613.291C496.873 611.066 497.325 609.126 498.231 607.47C499.136 605.815 500.378 604.547 501.956 603.668C503.559 602.788 505.396 602.349 507.465 602.349C509.561 602.349 511.384 602.788 512.937 603.668C514.514 604.521 515.717 605.711 516.545 607.238C517.399 608.738 517.826 610.419 517.826 612.282ZM513.363 612.165C513.415 610.769 513.169 609.605 512.626 608.673C512.109 607.716 511.384 607.018 510.453 606.578C509.548 606.112 508.552 605.88 507.465 605.88C505.732 605.88 504.284 606.41 503.12 607.47C501.956 608.531 501.322 610.096 501.218 612.165H513.363ZM534.047 602.271C536.531 602.271 538.523 603.073 540.023 604.677C541.523 606.281 542.273 608.57 542.273 611.545V624H537.85V612.01C537.85 610.096 537.359 608.622 536.376 607.587C535.393 606.526 534.047 605.996 532.34 605.996C530.581 605.996 529.171 606.565 528.111 607.703C527.05 608.816 526.52 610.458 526.52 612.631V624H522.096V602.62H526.52V607.315C527.089 605.711 528.046 604.47 529.391 603.59C530.736 602.711 532.288 602.271 534.047 602.271ZM558.195 620.159V624H555.478C553.202 624 551.469 623.457 550.279 622.37C549.115 621.258 548.533 619.421 548.533 616.86V606.384H545.468V602.62H548.533V597.304H552.995V602.62H558.156V606.384H552.995V616.938C552.995 618.154 553.215 618.995 553.655 619.46C554.12 619.926 554.922 620.159 556.06 620.159H558.195ZM582.18 620.159V624H579.464C577.188 624 575.455 623.457 574.265 622.37C573.101 621.258 572.519 619.421 572.519 616.86V606.384H569.453V602.62H572.519V597.304H576.981V602.62H582.142V606.384H576.981V616.938C576.981 618.154 577.201 618.995 577.641 619.46C578.106 619.926 578.908 620.159 580.046 620.159H582.18ZM596.102 602.349C598.172 602.349 600.034 602.788 601.69 603.668C603.345 604.547 604.639 605.815 605.57 607.47C606.501 609.126 606.967 611.066 606.967 613.291C606.967 615.541 606.501 617.494 605.57 619.15C604.639 620.805 603.345 622.073 601.69 622.952C600.034 623.832 598.172 624.272 596.102 624.272C594.033 624.272 592.17 623.832 590.515 622.952C588.885 622.073 587.592 620.805 586.634 619.15C585.703 617.468 585.238 615.515 585.238 613.291C585.238 611.066 585.703 609.126 586.634 607.47C587.592 605.815 588.885 604.547 590.515 603.668C592.17 602.788 594.033 602.349 596.102 602.349ZM596.102 606.19C594.964 606.19 593.916 606.449 592.959 606.966C592.002 607.483 591.226 608.285 590.631 609.372C590.062 610.432 589.777 611.739 589.777 613.291C589.777 614.869 590.062 616.188 590.631 617.248C591.226 618.309 592.002 619.098 592.959 619.615C593.916 620.133 594.964 620.391 596.102 620.391C597.24 620.391 598.288 620.133 599.245 619.615C600.202 619.098 600.965 618.309 601.534 617.248C602.129 616.188 602.427 614.869 602.427 613.291C602.427 611.739 602.129 610.432 601.534 609.372C600.965 608.285 600.202 607.483 599.245 606.966C598.288 606.449 597.24 606.19 596.102 606.19ZM622.836 602.62L629.238 618.335L635.175 602.62H640.102L627.181 634.166H622.254L626.871 623.496L617.869 602.62H622.836ZM652.789 602.349C654.859 602.349 656.721 602.788 658.377 603.668C660.032 604.547 661.326 605.815 662.257 607.47C663.188 609.126 663.654 611.066 663.654 613.291C663.654 615.541 663.188 617.494 662.257 619.15C661.326 620.805 660.032 622.073 658.377 622.952C656.721 623.832 654.859 624.272 652.789 624.272C650.72 624.272 648.857 623.832 647.202 622.952C645.572 622.073 644.279 620.805 643.321 619.15C642.39 617.468 641.925 615.515 641.925 613.291C641.925 611.066 642.39 609.126 643.321 607.47C644.279 605.815 645.572 604.547 647.202 603.668C648.857 602.788 650.72 602.349 652.789 602.349ZM652.789 606.19C651.651 606.19 650.603 606.449 649.646 606.966C648.689 607.483 647.913 608.285 647.318 609.372C646.749 610.432 646.464 611.739 646.464 613.291C646.464 614.869 646.749 616.188 647.318 617.248C647.913 618.309 648.689 619.098 649.646 619.615C650.603 620.133 651.651 620.391 652.789 620.391C653.927 620.391 654.975 620.133 655.932 619.615C656.889 619.098 657.652 618.309 658.221 617.248C658.816 616.188 659.114 614.869 659.114 613.291C659.114 611.739 658.816 610.432 658.221 609.372C657.652 608.285 656.889 607.483 655.932 606.966C654.975 606.449 653.927 606.19 652.789 606.19ZM687.618 602.62V624H683.155V619.344C682.612 620.922 681.668 622.15 680.323 623.03C678.978 623.884 677.413 624.31 675.628 624.31C673.145 624.31 671.153 623.509 669.652 621.905C668.152 620.301 667.402 618.012 667.402 615.037V602.62H671.825V614.571C671.825 616.511 672.317 618.012 673.3 619.072C674.283 620.107 675.628 620.624 677.335 620.624C679.094 620.624 680.504 620.055 681.565 618.917C682.625 617.779 683.155 616.123 683.155 613.95V602.62H687.618ZM697.339 606.811C698.063 605.414 699.098 604.315 700.443 603.513C701.788 602.685 703.34 602.271 705.099 602.271V607.082H703.78C701.84 607.082 700.275 607.561 699.085 608.518C697.921 609.449 697.339 611.001 697.339 613.174V624H692.915V602.62H697.339V606.811ZM744.242 602.271C746.777 602.271 748.795 603.073 750.295 604.677C751.821 606.281 752.584 608.57 752.584 611.545V624H748.161V612.01C748.161 610.148 747.695 608.712 746.764 607.703C745.833 606.669 744.552 606.151 742.923 606.151C741.19 606.151 739.806 606.707 738.771 607.82C737.762 608.906 737.258 610.51 737.258 612.631V624H732.834V612.01C732.834 610.148 732.369 608.712 731.437 607.703C730.506 606.669 729.226 606.151 727.596 606.151C725.863 606.151 724.479 606.707 723.444 607.82C722.435 608.906 721.931 610.51 721.931 612.631V624H717.507V602.62H721.931V607.082C722.474 605.53 723.38 604.34 724.647 603.513C725.915 602.685 727.402 602.271 729.109 602.271C730.894 602.271 732.433 602.711 733.727 603.59C735.046 604.47 736.003 605.737 736.598 607.393C737.219 605.789 738.215 604.534 739.586 603.629C740.957 602.724 742.509 602.271 744.242 602.271ZM766.324 602.349C768.264 602.349 769.92 602.827 771.291 603.784C772.662 604.741 773.632 606.009 774.201 607.587V602.62H778.625V624H774.201V619.033C773.632 620.611 772.662 621.879 771.291 622.836C769.92 623.793 768.264 624.272 766.324 624.272C764.462 624.272 762.793 623.832 761.319 622.952C759.87 622.073 758.732 620.805 757.904 619.15C757.077 617.494 756.663 615.541 756.663 613.291C756.663 611.066 757.077 609.126 757.904 607.47C758.732 605.815 759.87 604.547 761.319 603.668C762.793 602.788 764.462 602.349 766.324 602.349ZM767.682 606.229C765.716 606.229 764.139 606.863 762.949 608.13C761.785 609.372 761.203 611.092 761.203 613.291C761.203 615.489 761.785 617.223 762.949 618.49C764.139 619.732 765.716 620.353 767.682 620.353C768.924 620.353 770.036 620.068 771.019 619.499C772.002 618.904 772.778 618.076 773.348 617.016C773.917 615.955 774.201 614.713 774.201 613.291C774.201 611.894 773.917 610.665 773.348 609.605C772.778 608.518 772.002 607.69 771.019 607.121C770.036 606.526 768.924 606.229 767.682 606.229ZM783.312 596.412C783.312 595.662 783.571 595.041 784.088 594.549C784.605 594.058 785.291 593.812 786.145 593.812C786.998 593.812 787.684 594.058 788.201 594.549C788.744 595.041 789.016 595.662 789.016 596.412C789.016 597.162 788.744 597.77 788.201 598.236C787.684 598.701 786.998 598.934 786.145 598.934C785.291 598.934 784.605 598.701 784.088 598.236C783.571 597.77 783.312 597.162 783.312 596.412ZM788.356 602.62V624H783.933V602.62H788.356ZM798.132 595.287V624H793.709V595.287H798.132Z" fill="#353535"/>
</g>
</g>
<defs>
<filter id="filter0_d" x="38" y="-12" width="1001.7" height="764.4" filterUnits="userSpaceOnUse" color-interpolation-filters="sRGB">
<feFlood flood-opacity="0" result="BackgroundImageFix"/>
<feColorMatrix in="SourceAlpha" type="matrix" values="0 0 0 0 0 0 0 0 0 0 0 0 0 0 0 0 0 0 127 0"/>
<feOffset dx="-3" dy="8"/>
<feGaussianBlur stdDeviation="30"/>
<feColorMatrix type="matrix" values="0 0 0 0 0 0 0 0 0 0 0 0 0 0 0 0 0 0 0.2 0"/>
<feBlend mode="normal" in2="BackgroundImageFix" result="effect1_dropShadow"/>
<feBlend mode="normal" in="SourceGraphic" in2="effect1_dropShadow" result="shape"/>
</filter>
<filter id="filter1_d" x="170.55" y="67.0701" width="776.89" height="256.08" filterUnits="userSpaceOnUse" color-interpolation-filters="sRGB">
<feFlood flood-opacity="0" result="BackgroundImageFix"/>
<feColorMatrix in="SourceAlpha" type="matrix" values="0 0 0 0 0 0 0 0 0 0 0 0 0 0 0 0 0 0 127 0"/>
<feOffset dy="4"/>
<feGaussianBlur stdDeviation="15"/>
<feColorMatrix type="matrix" values="0 0 0 0 1 0 0 0 0 1 0 0 0 0 1 0 0 0 0.25 0"/>
<feBlend mode="normal" in2="BackgroundImageFix" result="effect1_dropShadow"/>
<feBlend mode="normal" in="SourceGraphic" in2="effect1_dropShadow" result="shape"/>
</filter>
<filter id="filter2_f" x="376.28" y="443" width="329" height="103" filterUnits="userSpaceOnUse" color-interpolation-filters="sRGB">
<feFlood flood-opacity="0" result="BackgroundImageFix"/>
<feBlend mode="normal" in="SourceGraphic" in2="BackgroundImageFix" result="shape"/>
<feGaussianBlur stdDeviation="15" result="effect1_foregroundBlur"/>
</filter>
<linearGradient id="paint0_linear" x1="574.289" y1="19.3787" x2="499.363" y2="810.763" gradientUnits="userSpaceOnUse">
<stop stop-color="#7E3FFF"/>
<stop offset="0.6082" stop-color="#1D2671" stop-opacity="0.9"/>
</linearGradient>
<linearGradient id="paint1_linear" x1="575.569" y1="19.0787" x2="500.643" y2="810.463" gradientUnits="userSpaceOnUse">
<stop stop-color="#7E3FFF"/>
<stop offset="0.6082" stop-color="#1D2671" stop-opacity="0.9"/>
</linearGradient>
<linearGradient id="paint2_linear" x1="372.218" y1="373.99" x2="614.449" y2="-96.2101" gradientUnits="userSpaceOnUse">
<stop stop-color="#7E3FFF" stop-opacity="0"/>
<stop offset="0.2577" stop-color="#A071FF" stop-opacity="0.1031"/>
<stop offset="1" stop-color="white" stop-opacity="0.4"/>
</linearGradient>
<linearGradient id="paint3_linear" x1="548.612" y1="541.466" x2="583.943" y2="287.001" gradientUnits="userSpaceOnUse">
<stop stop-color="#FD4C44"/>
<stop offset="0.2053" stop-color="#FA4F47" stop-opacity="0.9044"/>
<stop offset="0.3697" stop-color="#F0574F" stop-opacity="0.8278"/>
<stop offset="0.5199" stop-color="#DF645D" stop-opacity="0.7579"/>
<stop offset="0.6617" stop-color="#C77771" stop-opacity="0.6919"/>
<stop offset="0.7963" stop-color="#A98F8B" stop-opacity="0.6292"/>
<stop offset="0.8589" stop-color="#989D99" stop-opacity="0.6"/>
</linearGradient>
<clipPath id="clip0">
<rect width="1103" height="776" fill="white"/>
</clipPath>
</defs>
</svg>
